<svg width="20" height="16" viewBox="0 0 20 16" fill="none" xmlns="http://www.w3.org/2000/svg">
<path d="M9.94875 7.15027L16.7466 0.35239C17.2165 -0.117463 17.9762 -0.117463 18.4411 0.35239L19.5707 1.48204C20.0406 1.95189 20.0406 2.71165 19.5707 3.17651L14.7572 8L19.5757 12.8185C20.0456 13.2883 20.0456 14.0481 19.5757 14.513L18.4461 15.6476C17.9762 16.1175 17.2165 16.1175 16.7516 15.6476L9.95375 8.84973C9.4789 8.37988 9.4789 7.62012 9.94875 7.15027V7.15027ZM0.351767 8.84973L7.14963 15.6476C7.61949 16.1175 8.37925 16.1175 8.8441 15.6476L9.97375 14.518C10.4436 14.0481 10.4436 13.2883 9.97375 12.8235L5.16026 8L9.97875 3.18151C10.4486 2.71165 10.4486 1.95189 9.97875 1.48704L8.8491 0.35239C8.37925 -0.117463 7.61949 -0.117463 7.15463 0.35239L0.356765 7.15027C-0.118085 7.62012 -0.118085 8.37988 0.351767 8.84973V8.84973Z" fill="white"/>
</svg>
