<svg width="19" height="16" viewBox="0 0 19 16" fill="none" xmlns="http://www.w3.org/2000/svg">
<path d="M17.7143 12.5714H5.71429V12C5.71429 11.6857 5.45714 11.4286 5.14286 11.4286H4C3.68571 11.4286 3.42857 11.6857 3.42857 12V12.5714H0.571429C0.257143 12.5714 0 12.8286 0 13.1429V14.2857C0 14.6 0.257143 14.8571 0.571429 14.8571H3.42857V15.4286C3.42857 15.7429 3.68571 16 4 16H5.14286C5.45714 16 5.71429 15.7429 5.71429 15.4286V14.8571H17.7143C18.0286 14.8571 18.2857 14.6 18.2857 14.2857V13.1429C18.2857 12.8286 18.0286 12.5714 17.7143 12.5714ZM17.7143 6.85714H14.8571V6.28571C14.8571 5.97143 14.6 5.71429 14.2857 5.71429H13.1429C12.8286 5.71429 12.5714 5.97143 12.5714 6.28571V6.85714H0.571429C0.257143 6.85714 0 7.11429 0 7.42857V8.57143C0 8.88571 0.257143 9.14286 0.571429 9.14286H12.5714V9.71429C12.5714 10.0286 12.8286 10.2857 13.1429 10.2857H14.2857C14.6 10.2857 14.8571 10.0286 14.8571 9.71429V9.14286H17.7143C18.0286 9.14286 18.2857 8.88571 18.2857 8.57143V7.42857C18.2857 7.11429 18.0286 6.85714 17.7143 6.85714ZM17.7143 1.14286H10.2857V0.571429C10.2857 0.257143 10.0286 0 9.71429 0H8.57143C8.25714 0 8 0.257143 8 0.571429V1.14286H0.571429C0.257143 1.14286 0 1.4 0 1.71429V2.85714C0 3.17143 0.257143 3.42857 0.571429 3.42857H8V4C8 4.31429 8.25714 4.57143 8.57143 4.57143H9.71429C10.0286 4.57143 10.2857 4.31429 10.2857 4V3.42857H17.7143C18.0286 3.42857 18.2857 3.17143 18.2857 2.85714V1.71429C18.2857 1.4 18.0286 1.14286 17.7143 1.14286Z" fill="black"/>
</svg>
