<svg width="16" height="16" viewBox="0 0 16 16" fill="none" xmlns="http://www.w3.org/2000/svg">
<path d="M3.97187 4.57812C4.0125 4.81875 4.22188 5 4.47188 5H4.9875C5.29375 5 5.5375 4.73438 5.49687 4.4375C5.37812 3.55625 4.98438 2.74375 4.35313 2.10313C3.90313 1.64375 3.61563 1.0625 3.52813 0.43125C3.49375 0.184375 3.28125 0 3.025 0H2.5125C2.20625 0 1.96875 0.265625 2.00312 0.5625C2.125 1.55937 2.56562 2.47813 3.27187 3.2C3.64687 3.58125 3.8875 4.05937 3.97187 4.57812ZM7.47188 4.57812C7.5125 4.81875 7.72188 5 7.97188 5H8.4875C8.79375 5 9.0375 4.73438 8.99687 4.4375C8.87812 3.55625 8.48438 2.74375 7.85313 2.10313C7.40313 1.64375 7.11562 1.0625 7.02812 0.43125C6.99375 0.184375 6.78125 0 6.525 0H6.0125C5.70625 0 5.46563 0.265625 5.50313 0.5625C5.625 1.55937 6.06562 2.47813 6.77187 3.2C7.14687 3.58125 7.3875 4.05937 7.47188 4.57812ZM12.5 6H1C0.446875 6 0 6.44687 0 7V13C0 14.6562 1.34375 16 3 16H9C10.6562 16 12 14.6562 12 13H12.5C14.4312 13 16 11.4312 16 9.5C16 7.56875 14.4312 6 12.5 6ZM12.5 11H12V8H12.5C13.3281 8 14 8.67188 14 9.5C14 10.3281 13.3281 11 12.5 11Z" fill="black"/>
</svg>
