<svg width="16" height="14" viewBox="0 0 16 14" fill="none" xmlns="http://www.w3.org/2000/svg">
<path d="M4.50149 5.49929C3.94844 5.49929 3.50162 5.9461 3.50162 6.49916C3.50162 7.05221 3.94844 7.49903 4.50149 7.49903C5.05454 7.49903 5.50136 7.05221 5.50136 6.49916C5.50136 5.9461 5.05454 5.49929 4.50149 5.49929ZM8.00104 5.49929C7.44798 5.49929 7.00117 5.9461 7.00117 6.49916C7.00117 7.05221 7.44798 7.49903 8.00104 7.49903C8.55409 7.49903 9.00091 7.05221 9.00091 6.49916C9.00091 5.9461 8.55409 5.49929 8.00104 5.49929ZM11.5006 5.49929C10.9475 5.49929 10.5007 5.9461 10.5007 6.49916C10.5007 7.05221 10.9475 7.49903 11.5006 7.49903C12.0536 7.49903 12.5005 7.05221 12.5005 6.49916C12.5005 5.9461 12.0536 5.49929 11.5006 5.49929ZM8.00104 0C3.58286 0 0.00207374 2.909 0.00207374 6.49916C0.00207374 7.98646 0.623868 9.34879 1.65498 10.4455C1.18942 11.6766 0.220795 12.7202 0.205172 12.7327C-0.00105086 12.9514 -0.0572936 13.2702 0.061441 13.5451C0.180176 13.8201 0.452015 13.9982 0.751977 13.9982C2.6736 13.9982 4.18903 13.1952 5.09829 12.5515C6.0013 12.8358 6.97617 12.9983 8.00104 12.9983C12.4192 12.9983 16 10.0893 16 6.49916C16 2.909 12.4192 0 8.00104 0ZM8.00104 11.4985C7.16677 11.4985 6.34188 11.3704 5.55135 11.1204L4.84207 10.8955L4.23278 11.3267C3.78596 11.6422 3.17354 11.9953 2.43613 12.2328C2.66423 11.8547 2.88608 11.4298 3.05793 10.9767L3.38913 10.0987L2.74547 9.41753C2.17992 8.81448 1.50188 7.81774 1.50188 6.49916C1.50188 3.74326 4.41713 1.49981 8.00104 1.49981C11.5849 1.49981 14.5002 3.74326 14.5002 6.49916C14.5002 9.25505 11.5849 11.4985 8.00104 11.4985Z" fill="black"/>
</svg>
