<svg width="21" height="16" viewBox="0 0 21 16" fill="none" xmlns="http://www.w3.org/2000/svg">
<path d="M19.0002 12.65C19.9824 11.6821 20.5717 10.4679 20.5717 9.14286C20.5717 6.28571 17.8395 3.925 14.2788 3.50357C13.1538 1.44643 10.511 0 7.42881 0C3.32524 0 0.000240541 2.55714 0.000240541 5.71429C0.000240541 7.03571 0.589526 8.25 1.57167 9.22143C1.02524 10.3179 0.239526 11.1679 0.225241 11.1821C0.000240547 11.4214 -0.0640452 11.7714 0.0680977 12.075C0.196669 12.3786 0.496669 12.575 0.82524 12.575C2.73595 12.575 4.27881 11.8536 5.29667 11.1893C5.62524 11.2643 5.96453 11.3214 6.31095 11.3643C7.43238 13.4143 10.0645 14.8571 13.1431 14.8571C13.886 14.8571 14.6002 14.7714 15.2788 14.6143C16.2967 15.275 17.836 16 19.7502 16C20.0788 16 20.3752 15.8036 20.5074 15.5C20.636 15.1964 20.5752 14.8464 20.3502 14.6071C20.336 14.5964 19.5467 13.7464 19.0002 12.65V12.65ZM4.97167 9.35357L4.36095 9.75C3.85738 10.075 3.3431 10.3321 2.82167 10.5143C2.9181 10.3464 3.01453 10.1679 3.10738 9.98571L3.66095 8.875L2.77524 8C2.2931 7.52143 1.71453 6.73929 1.71453 5.71429C1.71453 3.54643 4.33238 1.71429 7.42881 1.71429C10.5252 1.71429 13.1431 3.54643 13.1431 5.71429C13.1431 7.88214 10.5252 9.71429 7.42881 9.71429C6.83953 9.71429 6.25024 9.64643 5.67881 9.51429L4.97167 9.35357ZM17.7967 11.4286L16.9145 12.3L17.4681 13.4107C17.561 13.5929 17.6574 13.7714 17.7538 13.9393C17.2324 13.7571 16.7181 13.5 16.2145 13.175L15.6038 12.7786L14.8931 12.9429C14.3217 13.075 13.7324 13.1429 13.1431 13.1429C11.2145 13.1429 9.4931 12.425 8.45381 11.3679C12.0717 10.9821 14.8574 8.60357 14.8574 5.71429C14.8574 5.59286 14.8431 5.475 14.8324 5.35714C17.1324 5.875 18.8574 7.38571 18.8574 9.14286C18.8574 10.1679 18.2788 10.95 17.7967 11.4286Z" fill="black"/>
</svg>
