<svg width="16" height="17" viewBox="0 0 16 17" fill="none" xmlns="http://www.w3.org/2000/svg">
<path d="M12.6452 1.74516C14.6774 3.19677 16 5.57097 16 8.25806C16 12.671 12.4258 16.2484 8.01613 16.2581C3.61291 16.2677 0.0064575 12.6774 5.88762e-06 8.27097C-0.00321992 5.58387 1.31936 3.20322 3.34839 1.74839C3.72581 1.48064 4.25162 1.59355 4.47742 1.99677L4.9871 2.90323C5.17742 3.24193 5.0871 3.67097 4.7742 3.90322C3.43549 4.89677 2.58065 6.47097 2.58065 8.25484C2.57742 11.2323 4.98387 13.6774 8 13.6774C10.9548 13.6774 13.4387 11.2839 13.4194 8.22258C13.4097 6.55161 12.6226 4.93871 11.2226 3.9C10.9097 3.66774 10.8226 3.23871 11.0129 2.90323L11.5226 1.99677C11.7484 1.59677 12.271 1.47742 12.6452 1.74516ZM9.29032 8.51613V0.774193C9.29032 0.345161 8.94516 0 8.51613 0H7.48387C7.05484 0 6.70968 0.345161 6.70968 0.774193V8.51613C6.70968 8.94516 7.05484 9.29032 7.48387 9.29032H8.51613C8.94516 9.29032 9.29032 8.94516 9.29032 8.51613Z" fill="black"/>
</svg>
