<svg width="15" height="16" viewBox="0 0 15 16" fill="none" xmlns="http://www.w3.org/2000/svg">
<path d="M0.429062 7.04094C0.155 7.505 -6.99382e-07 8 -6.47065e-07 8.59844C-5.26818e-07 9.97391 1.16306 11.2728 2.68187 11.2728L3.82187 11.2728C3.66812 11.6731 3.54531 12.1519 3.54531 12.7272C3.54531 15.002 4.72312 16 6.5225 16C8.44772 16 8.33791 13.0333 8.765 12.6063C9.47584 11.8954 10.3155 10.5298 10.9137 10L14 10C14.5523 10 15 9.55228 15 9L15 1.5C15 0.947719 14.5523 0.5 14 0.5L12 0.5C11.5346 0.5 11.1435 0.817938 11.0319 1.24844C9.64103 1.21716 8.68631 0.000313357 5.47562 0.000313638C5.25 0.000313658 5 8.74228e-07 4.78125 8.93351e-07C2.37134 1.10403e-06 1.28169 1.23197 1.25187 2.97906C0.835655 3.55484 0.61753 4.32663 0.709999 5.0725C0.402062 5.64913 0.283 6.33322 0.429062 7.04094ZM2.35875 5.35875C1.96625 4.69844 2.31937 3.81469 2.79437 3.55969C2.55375 2.03531 3.34462 1.50031 4.45437 1.50031L5.63625 1.50031C7.87497 1.50031 9.32466 2.68219 11 2.68219L11 8.5L10.6587 8.5C9.7725 8.5 8.53437 10.7153 7.70437 11.5456C6.81812 12.4319 7.11344 13.9091 6.5225 14.5C5.04531 14.5 5.04531 13.4694 5.04531 12.7272C5.04531 11.5031 5.93156 10.9547 5.93156 9.77281L2.68187 9.77281C2.02219 9.77281 1.50281 9.18188 1.5 8.59094C1.49719 8.00031 1.90062 7.40938 2.19594 7.40938C1.77441 6.95453 1.68434 5.99575 2.35875 5.35875V5.35875ZM12.25 2.5C12.25 2.08578 12.5858 1.75 13 1.75C13.4142 1.75 13.75 2.08578 13.75 2.5C13.75 2.91422 13.4142 3.25 13 3.25C12.5858 3.25 12.25 2.91422 12.25 2.5Z" fill="black"/>
</svg>
