<svg width="20" height="15" viewBox="0 0 20 15" fill="none" xmlns="http://www.w3.org/2000/svg">
<path d="M18.125 0H1.875C0.839453 0 0 0.839453 0 1.875V13.125C0 14.1605 0.839453 15 1.875 15H18.125C19.1605 15 20 14.1605 20 13.125V1.875C20 0.839453 19.1605 0 18.125 0ZM18.125 1.875V3.46895C17.2491 4.18219 15.8528 5.29125 12.8677 7.62871C12.2098 8.14617 10.9067 9.38934 10 9.37484C9.09344 9.38949 7.78988 8.14598 7.1323 7.62871C4.14766 5.2916 2.75098 4.1823 1.875 3.46895V1.875H18.125ZM1.875 13.125V5.87492C2.77008 6.58785 4.03941 7.58828 5.97414 9.10328C6.82793 9.77535 8.32312 11.259 10 11.25C11.6686 11.259 13.1449 9.79688 14.0255 9.10359C15.9602 7.58863 17.2299 6.58793 18.125 5.87496V13.125H1.875Z" fill="black"/>
</svg>
