<svg width="160" height="112" viewBox="0 0 160 112" fill="none" xmlns="http://www.w3.org/2000/svg">
<path d="M18.0869 33.2058C18.0869 24.856 24.8479 18.0869 33.1877 18.0869C41.5274 18.0869 48.2884 24.856 48.2884 33.2058C48.2884 41.5555 41.5274 48.3246 33.1877 48.3246C24.8479 48.3246 18.0869 41.5555 18.0869 33.2058Z" fill="#C4C4C4"/>
<path d="M141.913 93.6811H21.1071V75.5385L36.0243 60.603C37.7938 58.8318 40.6621 58.8318 42.4312 60.603L57.3488 75.5385L102.468 30.3653C104.237 28.5941 107.105 28.5941 108.874 30.3653L141.913 63.4434V93.6811Z" fill="#C4C4C4"/>
<path fill-rule="evenodd" clip-rule="evenodd" d="M0 9.06228C0 4.05732 4.05478 0 9.0566 0H150.943C155.945 0 160 4.05732 160 9.06228V102.706C160 107.711 155.945 111.768 150.943 111.768H9.0566C4.05478 111.768 0 107.711 0 102.706V9.06228ZM9.0566 9.06228V102.706H150.943V9.06228H9.0566Z" fill="#C4C4C4"/>
</svg>
