<svg width="18" height="12" viewBox="0 0 18 12" fill="none" xmlns="http://www.w3.org/2000/svg">
<path fill-rule="evenodd" clip-rule="evenodd" d="M6.71973 7.27808C6.98145 7.19714 7.21436 7.125 7.51587 7.125C9.29419 7.125 10.7368 8.53589 10.7368 10.275V10.875C10.7368 11.4961 10.2217 12 9.58643 12H1.15039C0.515381 12 0 11.4961 0 10.875V10.275C0 8.53589 1.44287 7.125 3.22095 7.125C3.52393 7.125 3.75708 7.19727 4.0188 7.27832C4.35352 7.38196 4.73486 7.5 5.36841 7.5C6.00244 7.5 6.38452 7.38171 6.71973 7.27808ZM1.15039 10.275V10.875H9.58643V10.275C9.58643 9.15942 8.65649 8.25 7.51587 8.25C7.39331 8.25 7.24609 8.29529 7.0542 8.35449C6.69409 8.46545 6.17651 8.625 5.36841 8.625C4.56665 8.625 4.04614 8.46558 3.68408 8.35461C3.49097 8.29541 3.34277 8.25 3.22095 8.25C2.08032 8.25 1.15039 9.15942 1.15039 10.275ZM8.81958 3.375C8.81958 5.23828 7.27368 6.75 5.36841 6.75C3.46313 6.75 1.91724 5.23828 1.91724 3.375C1.91724 1.51172 3.46313 0 5.36841 0C7.27368 0 8.81958 1.51172 8.81958 3.375ZM7.66919 3.375C7.66919 2.13513 6.63623 1.125 5.36841 1.125C4.10059 1.125 3.06763 2.13513 3.06763 3.375C3.06763 4.61487 4.10059 5.625 5.36841 5.625C6.63623 5.625 7.66919 4.61487 7.66919 3.375ZM17.0012 11H11.6953C11.7 10.959 11.7024 10.9172 11.7024 10.875V10.275C11.7024 10.2036 11.7 10.1327 11.6951 10.0625H17.0012V9.5625C17.0012 8.63281 16.2219 7.875 15.2656 7.875C15.2019 7.875 15.1304 7.88953 15.0471 7.91223C14.9958 7.92627 14.9399 7.94336 14.8787 7.96216C14.5767 8.05457 14.1428 8.1875 13.4656 8.1875C12.7937 8.1875 12.3574 8.05469 12.054 7.96216C11.9629 7.93445 11.8838 7.9104 11.8137 7.89465C11.7593 7.88232 11.7102 7.875 11.6655 7.875C11.3538 7.875 11.0608 7.95557 10.8074 8.09644C10.6836 7.97021 10.5493 7.854 10.4058 7.74915C10.2776 7.65552 10.1418 7.57104 10 7.49658C10.459 7.14636 11.0374 6.9375 11.6655 6.9375C11.9194 6.9375 12.115 6.99768 12.3345 7.06519C12.615 7.15161 12.9346 7.25 13.4656 7.25C13.9971 7.25 14.3174 7.15137 14.5981 7.06494C14.8174 6.99756 15.0127 6.9375 15.2656 6.9375C16.7561 6.9375 17.9656 8.11328 17.9656 9.5625V10.0625C17.9656 10.5801 17.5337 11 17.0012 11ZM13.4656 6.625C15.0627 6.625 16.3584 5.36523 16.3584 3.8125C16.3584 2.25977 15.0627 1 13.4656 1C11.8684 1 10.5728 2.25977 10.5728 3.8125C10.5728 5.36523 11.8684 6.625 13.4656 6.625ZM13.4656 1.9375C14.5283 1.9375 15.394 2.7793 15.394 3.8125C15.394 4.8457 14.5283 5.6875 13.4656 5.6875C12.4028 5.6875 11.5371 4.8457 11.5371 3.8125C11.5371 2.7793 12.4028 1.9375 13.4656 1.9375Z" fill="white"/>
</svg>
