<svg width="31" height="21" viewBox="0 0 31 21" fill="none" xmlns="http://www.w3.org/2000/svg">
<path fill-rule="evenodd" clip-rule="evenodd" d="M11.6495 12.5051C12.0857 12.3702 12.4739 12.25 12.9764 12.25C15.9403 12.25 18.3446 14.6015 18.3446 17.5V18.5C18.3446 19.5352 17.4861 20.375 16.4273 20.375H2.36727C1.30892 20.375 0.449951 19.5352 0.449951 18.5V17.5C0.449951 14.6015 2.85473 12.25 5.8182 12.25C6.32317 12.25 6.71175 12.3704 7.14795 12.5055C7.70582 12.6783 8.34138 12.875 9.3973 12.875C10.454 12.875 11.0908 12.6778 11.6495 12.5051ZM2.36727 17.5V18.5H16.4273V17.5C16.4273 15.6407 14.8774 14.125 12.9764 14.125C12.7721 14.125 12.5268 14.2005 12.207 14.2992C11.6068 14.4841 10.7441 14.75 9.3973 14.75C8.06103 14.75 7.19352 14.4843 6.59008 14.2994C6.26823 14.2007 6.02123 14.125 5.8182 14.125C3.91715 14.125 2.36727 15.6407 2.36727 17.5ZM15.1493 6C15.1493 9.10547 12.5728 11.625 9.3973 11.625C6.22183 11.625 3.64535 9.10547 3.64535 6C3.64535 2.89453 6.22183 0.375 9.3973 0.375C12.5728 0.375 15.1493 2.89453 15.1493 6ZM13.2319 6C13.2319 3.93355 11.5103 2.25 9.3973 2.25C7.28427 2.25 5.56267 3.93355 5.56267 6C5.56267 8.06645 7.28427 9.75 9.3973 9.75C11.5103 9.75 13.2319 8.06645 13.2319 6ZM28.7853 18.7083H19.9421C19.95 18.64 19.954 18.5703 19.954 18.5V17.5C19.954 17.381 19.95 17.2628 19.9418 17.1458H28.7853V16.3125C28.7853 14.763 27.4865 13.5 25.8926 13.5C25.7865 13.5 25.6673 13.5242 25.5285 13.562C25.443 13.5854 25.3498 13.6139 25.2478 13.6453C24.7445 13.7993 24.0213 14.0208 22.8926 14.0208C21.7728 14.0208 21.0456 13.7995 20.54 13.6453C20.3881 13.5991 20.2563 13.559 20.1395 13.5328C20.0488 13.5122 19.967 13.5 19.8925 13.5C19.373 13.5 18.8846 13.6343 18.4623 13.8691C18.256 13.6587 18.0321 13.465 17.7929 13.2902C17.5793 13.1342 17.353 12.9934 17.1166 12.8693C17.8816 12.2856 18.8456 11.9375 19.8925 11.9375C20.3156 11.9375 20.6416 12.0378 21.0075 12.1503C21.475 12.2943 22.0076 12.4583 22.8926 12.4583C23.7785 12.4583 24.3123 12.2939 24.7801 12.1499C25.1456 12.0376 25.4711 11.9375 25.8926 11.9375C28.3768 11.9375 30.3926 13.8971 30.3926 16.3125V17.1458C30.3926 18.0085 29.6728 18.7083 28.7853 18.7083ZM22.8926 11.4167C25.5545 11.4167 27.714 9.31705 27.714 6.72917C27.714 4.14128 25.5545 2.04167 22.8926 2.04167C20.2306 2.04167 18.0713 4.14128 18.0713 6.72917C18.0713 9.31705 20.2306 11.4167 22.8926 11.4167ZM22.8926 3.60417C24.6638 3.60417 26.1066 5.00717 26.1066 6.72917C26.1066 8.45117 24.6638 9.85417 22.8926 9.85417C21.1213 9.85417 19.6784 8.45117 19.6784 6.72917C19.6784 5.00717 21.1213 3.60417 22.8926 3.60417Z" fill="black"/>
</svg>
