<svg width="15" height="16" viewBox="0 0 15 16" fill="none" xmlns="http://www.w3.org/2000/svg">
<path d="M14.5709 8.95906C14.845 8.495 15 8 15 7.40156C15 6.02609 13.8369 4.72719 12.3181 4.72719H11.1781C11.3319 4.32688 11.4547 3.84812 11.4547 3.27281C11.4547 0.998 10.2769 0 8.4775 0C6.55228 0 6.66209 2.96666 6.235 3.39375C5.52416 4.10459 4.68453 5.47022 4.08625 6H1C0.447719 6 0 6.44772 0 7V14.5C0 15.0523 0.447719 15.5 1 15.5H3C3.46541 15.5 3.8565 15.1821 3.96806 14.7516C5.35897 14.7828 6.31369 15.9997 9.52437 15.9997C9.75 15.9997 10 16 10.2188 16C12.6287 16 13.7183 14.768 13.7481 13.0209C14.1643 12.4452 14.3825 11.6734 14.29 10.9275C14.5979 10.3509 14.717 9.66678 14.5709 8.95906ZM12.6412 10.6412C13.0337 11.3016 12.6806 12.1853 12.2056 12.4403C12.4462 13.9647 11.6554 14.4997 10.5456 14.4997H9.36375C7.12503 14.4997 5.67534 13.3178 4 13.3178V7.5H4.34125C5.2275 7.5 6.46563 5.28469 7.29563 4.45437C8.18188 3.56812 7.88656 2.09094 8.4775 1.5C9.95469 1.5 9.95469 2.53063 9.95469 3.27281C9.95469 4.49687 9.06844 5.04531 9.06844 6.22719H12.3181C12.9778 6.22719 13.4972 6.81812 13.5 7.40906C13.5028 7.99969 13.0994 8.59062 12.8041 8.59062C13.2256 9.04547 13.3157 10.0042 12.6412 10.6412ZM2.75 13.5C2.75 13.9142 2.41422 14.25 2 14.25C1.58578 14.25 1.25 13.9142 1.25 13.5C1.25 13.0858 1.58578 12.75 2 12.75C2.41422 12.75 2.75 13.0858 2.75 13.5Z" fill="black"/>
</svg>
