<svg width="22" height="16" viewBox="0 0 22 16" fill="none" xmlns="http://www.w3.org/2000/svg">
<path d="M17.3636 15.6718H13.8575C13.582 15.6718 13.3566 15.4514 13.3566 15.182V13.5496C13.3566 13.2802 13.582 13.0598 13.8575 13.0598H17.3636C18.1024 13.0598 18.6993 12.4762 18.6993 11.7538V3.91794C18.6993 3.19557 18.1024 2.61196 17.3636 2.61196H13.8575C13.582 2.61196 13.3566 2.39158 13.3566 2.12222V0.489743C13.3566 0.220384 13.582 0 13.8575 0H17.3636C19.5758 0 21.3706 1.75491 21.3706 3.91794V11.7538C21.3706 13.9169 19.5758 15.6718 17.3636 15.6718ZM15.4019 7.46858L8.38963 0.612179C7.76354 0 6.67831 0.428525 6.67831 1.30598V5.22392H1.00175C0.446612 5.22392 0 5.66061 0 6.20341V10.1214C0 10.6641 0.446612 11.1008 1.00175 11.1008H6.67831V15.0188C6.67831 15.8962 7.76354 16.3248 8.38963 15.7126L15.4019 8.85618C15.79 8.47255 15.79 7.85221 15.4019 7.46858Z" fill="black"/>
</svg>
