<svg width="48" height="48" viewBox="0 0 48 48" fill="none" xmlns="http://www.w3.org/2000/svg">
<g opacity="0.7">
<path d="M24 44.064C29.376 44.064 34.416 42 38.208 38.208C42 34.416 44.064 29.376 44.064 24C44.064 18.624 42 13.584 38.208 9.79203C34.416 6.00003 29.376 3.93604 24 3.93604C18.624 3.93604 13.584 6.00003 9.79203 9.79203C6.00003 13.584 3.93604 18.624 3.93604 24C3.93604 29.376 6.00003 34.416 9.79203 38.208C13.584 42 18.624 44.064 24 44.064ZM25.152 40.656C24.768 40.704 24.384 40.704 24 40.704C23.472 40.704 22.944 40.656 22.416 40.608C20.688 37.92 19.392 35.04 18.624 32.016H27.12C27.408 32.736 27.936 33.408 28.56 33.84C27.744 36.24 26.592 38.496 25.152 40.656ZM29.712 39.696C30.624 38.016 31.344 36.336 31.92 34.56C33.312 34.272 34.416 33.312 34.944 32.016H38.64C36.72 35.52 33.504 38.256 29.712 39.696ZM40.656 24C40.656 25.584 40.416 27.12 40.032 28.608H34.848C34.56 27.984 34.08 27.408 33.504 26.976C33.6 25.92 33.648 24.864 33.648 23.808C33.648 22.32 33.552 20.832 33.36 19.392H39.984C40.464 20.832 40.656 22.416 40.656 24ZM38.64 15.984H32.784C32.16 13.344 31.248 10.848 30 8.44804C33.648 9.84004 36.72 12.576 38.64 15.984ZM30.288 23.808C30.288 24.624 30.24 25.44 30.192 26.256C28.848 26.544 27.744 27.408 27.216 28.608H17.952C17.76 27.168 17.616 25.68 17.616 24.24C17.616 23.328 17.664 22.416 17.76 21.504C19.008 21.264 20.016 20.448 20.64 19.392H30C30.192 20.832 30.288 22.32 30.288 23.808ZM22.752 7.39203C23.184 7.34403 23.616 7.34404 24 7.34404C24.48 7.34404 24.96 7.34403 25.44 7.39203C27.168 10.08 28.464 12.96 29.232 15.984H20.88C20.592 15.168 20.064 14.448 19.392 13.92C20.256 11.616 21.36 9.45603 22.752 7.39203ZM18.192 8.35203C17.376 9.88803 16.656 11.52 16.08 13.152C14.592 13.44 13.392 14.544 12.912 15.936H9.40804C11.28 12.528 14.4 9.79203 18.192 8.35203ZM7.34404 24C7.34404 22.416 7.58404 20.832 8.01604 19.392H13.248C13.536 19.92 13.968 20.4 14.448 20.784C14.352 21.936 14.256 23.088 14.256 24.24C14.256 25.728 14.352 27.168 14.544 28.608H8.01604C7.53604 27.12 7.34404 25.584 7.34404 24ZM15.12 31.968C15.744 34.56 16.656 37.104 17.904 39.504C14.256 38.064 11.232 35.376 9.36004 31.968H15.12Z" fill="#FFD7D7"/>
</g>
</svg>
