<svg width="800" height="800" viewBox="0 0 800 800" fill="none" xmlns="http://www.w3.org/2000/svg">
<path d="M400 650C466.986 650 529.785 624.282 577.033 577.034C624.282 529.785 650 466.986 650 400C650 333.014 624.282 270.215 577.033 222.966C529.785 175.718 466.986 150 400 150C333.014 150 270.215 175.718 222.966 222.966C175.718 270.215 150 333.014 150 400C150 466.986 175.718 529.785 222.966 577.034C270.215 624.282 333.014 650 400 650ZM414.354 607.536C409.569 608.134 404.785 608.134 400 608.134C393.421 608.134 386.842 607.536 380.263 606.938C358.732 573.445 342.584 537.56 333.014 499.88H438.876C442.464 508.852 449.043 517.225 456.818 522.608C446.651 552.512 432.297 580.622 414.354 607.536V607.536ZM471.172 595.574C482.536 574.641 491.507 553.708 498.684 531.579C516.029 527.99 529.785 516.029 536.364 499.88H582.416C558.493 543.541 518.421 577.632 471.172 595.574ZM607.536 400C607.536 419.737 604.545 438.876 599.761 457.416H535.167C531.579 449.641 525.598 442.464 518.421 437.081C519.617 423.924 520.215 410.766 520.215 397.608C520.215 379.067 519.019 360.526 516.627 342.584H599.163C605.144 360.526 607.536 380.263 607.536 400V400ZM582.416 300.12H509.45C501.675 267.225 490.311 236.124 474.761 206.22C520.215 223.565 558.493 257.656 582.416 300.12ZM478.349 397.608C478.349 407.775 477.751 417.943 477.153 428.11C460.407 431.699 446.651 442.464 440.072 457.416H324.641C322.249 439.474 320.455 420.933 320.455 402.99C320.455 391.627 321.053 380.263 322.249 368.9C337.799 365.909 350.359 355.742 358.134 342.584H474.761C477.153 360.526 478.349 379.067 478.349 397.608V397.608ZM384.45 193.062C389.832 192.464 395.215 192.464 400 192.464C405.981 192.464 411.962 192.464 417.943 193.062C439.474 226.555 455.622 262.44 465.191 300.12H361.124C357.536 289.952 350.957 280.981 342.584 274.402C353.349 245.694 367.105 218.78 384.45 193.062ZM327.632 205.024C317.464 224.163 308.493 244.498 301.316 264.833C282.775 268.421 267.823 282.177 261.842 299.522H218.182C241.507 257.057 280.383 222.966 327.632 205.024ZM192.464 400C192.464 380.263 195.455 360.526 200.837 342.584H266.029C269.617 349.163 275 355.144 280.981 359.928C279.785 374.282 278.589 388.636 278.589 402.99C278.589 421.531 279.785 439.474 282.177 457.416H200.837C194.856 438.876 192.464 419.737 192.464 400ZM289.354 499.282C297.129 531.579 308.493 563.277 324.043 593.182C278.589 575.239 240.909 541.746 217.584 499.282H289.354Z" fill="white"/>
</svg>
