<svg width="19" height="16" viewBox="0 0 19 16" fill="none" xmlns="http://www.w3.org/2000/svg">
<path d="M12.5837 2.59738L15.403 5.41668C15.5218 5.53546 15.5218 5.72924 15.403 5.84802L8.57668 12.6744L5.67611 12.9963C5.28853 13.04 4.96034 12.7119 5.0041 12.3243L5.32604 9.42372L12.1524 2.59738C12.2711 2.47861 12.4649 2.47861 12.5837 2.59738ZM17.6472 1.88162L16.1219 0.35632C15.6468 -0.118773 14.8748 -0.118773 14.3966 0.35632L13.2901 1.46279C13.1713 1.58156 13.1713 1.77535 13.2901 1.89412L16.1094 4.71342C16.2282 4.83219 16.422 4.83219 16.5407 4.71342L17.6472 3.60695C18.1223 3.12874 18.1223 2.35671 17.6472 1.88162V1.88162ZM12.0023 10.8177V13.9996H2.00039V3.99766H9.18304C9.28306 3.99766 9.37683 3.95702 9.44872 3.88826L10.699 2.63802C10.9365 2.40047 10.7677 1.99727 10.4333 1.99727H1.50029C0.672006 1.99727 0 2.66927 0 3.49756V14.4997C0 15.328 0.672006 16 1.50029 16H12.5024C13.3307 16 14.0027 15.328 14.0027 14.4997V9.56749C14.0027 9.23305 13.5995 9.0674 13.362 9.30182L12.1117 10.5521C12.043 10.624 12.0023 10.7177 12.0023 10.8177Z" fill="black"/>
</svg>
