<svg width="12" height="12" viewBox="0 0 12 12" fill="none" xmlns="http://www.w3.org/2000/svg">
<path d="M12 4.12502C12 6.4032 10.1532 8.25 7.875 8.25C7.61203 8.25 7.35492 8.22511 7.10562 8.17807L6.54284 8.81121C6.49006 8.87058 6.42531 8.9181 6.35285 8.95064C6.28038 8.98318 6.20185 9 6.12241 9H5.25V9.9375C5.25 10.2482 4.99816 10.5 4.6875 10.5H3.75V11.4375C3.75 11.7482 3.49816 12 3.1875 12H0.5625C0.251836 12 0 11.7482 0 11.4375V9.60799C0 9.45881 0.0592734 9.31573 0.164742 9.21023L3.95698 5.418C3.82284 5.01127 3.75 4.57666 3.75 4.125C3.75 1.84683 5.5968 2.34377e-05 7.87498 2.23888e-10C10.1599 -2.34373e-05 12 1.8401 12 4.12502ZM7.875 3C7.875 3.62133 8.37867 4.125 9 4.125C9.62133 4.125 10.125 3.62133 10.125 3C10.125 2.37867 9.62133 1.875 9 1.875C8.37867 1.875 7.875 2.37867 7.875 3Z" fill="black"/>
</svg>
