<svg width="11" height="12" viewBox="0 0 11 12" fill="none" xmlns="http://www.w3.org/2000/svg">
<path d="M7.51579 7.125C6.82796 7.125 6.49723 7.5 5.36842 7.5C4.23961 7.5 3.91128 7.125 3.22105 7.125C1.44276 7.125 0 8.53594 0 10.275V10.875C0 11.4961 0.515273 12 1.15038 12H9.58647C10.2216 12 10.7368 11.4961 10.7368 10.875V10.275C10.7368 8.53594 9.29408 7.125 7.51579 7.125ZM9.58647 10.875H1.15038V10.275C1.15038 9.15938 2.08026 8.25 3.22105 8.25C3.57096 8.25 4.13896 8.625 5.36842 8.625C6.60747 8.625 7.16349 8.25 7.51579 8.25C8.65658 8.25 9.58647 9.15938 9.58647 10.275V10.875ZM5.36842 6.75C7.27373 6.75 8.81955 5.23828 8.81955 3.375C8.81955 1.51172 7.27373 0 5.36842 0C3.46311 0 1.91729 1.51172 1.91729 3.375C1.91729 5.23828 3.46311 6.75 5.36842 6.75ZM5.36842 1.125C6.63623 1.125 7.66917 2.13516 7.66917 3.375C7.66917 4.61484 6.63623 5.625 5.36842 5.625C4.10061 5.625 3.06767 4.61484 3.06767 3.375C3.06767 2.13516 4.10061 1.125 5.36842 1.125Z" fill="white"/>
</svg>
