<svg width="20" height="23" viewBox="0 0 20 23" fill="none" xmlns="http://www.w3.org/2000/svg">
<path d="M14 13.2721C12.7188 13.2721 12.1027 13.9706 10 13.9706C7.89732 13.9706 7.28571 13.2721 6 13.2721C2.6875 13.2721 0 15.9003 0 19.1397V20.2574C0 21.4143 0.959821 22.3529 2.14286 22.3529H17.8571C19.0402 22.3529 20 21.4143 20 20.2574V19.1397C20 15.9003 17.3125 13.2721 14 13.2721ZM17.8571 20.2574H2.14286V19.1397C2.14286 17.0616 3.875 15.3676 6 15.3676C6.65179 15.3676 7.70982 16.0662 10 16.0662C12.308 16.0662 13.3438 15.3676 14 15.3676C16.125 15.3676 17.8571 17.0616 17.8571 19.1397V20.2574ZM10 12.5735C13.5491 12.5735 16.4286 9.75758 16.4286 6.28676C16.4286 2.81595 13.5491 0 10 0C6.45089 0 3.57143 2.81595 3.57143 6.28676C3.57143 9.75758 6.45089 12.5735 10 12.5735ZM10 2.09559C12.3616 2.09559 14.2857 3.97725 14.2857 6.28676C14.2857 8.59628 12.3616 10.4779 10 10.4779C7.63839 10.4779 5.71429 8.59628 5.71429 6.28676C5.71429 3.97725 7.63839 2.09559 10 2.09559Z" fill="black"/>
</svg>
