<svg width="15" height="16" viewBox="0 0 15 16" fill="none" xmlns="http://www.w3.org/2000/svg">
<path d="M10.0211 9.5C9.10395 9.5 8.66297 10 7.15789 10C5.65282 10 5.21504 9.5 4.29474 9.5C1.92368 9.5 0 11.3812 0 13.7V14.5C0 15.3281 0.68703 16 1.53383 16H12.782C13.6288 16 14.3158 15.3281 14.3158 14.5V13.7C14.3158 11.3812 12.3921 9.5 10.0211 9.5ZM12.782 14.5H1.53383V13.7C1.53383 12.2125 2.77368 11 4.29474 11C4.76128 11 5.51861 11.5 7.15789 11.5C8.80996 11.5 9.55132 11 10.0211 11C11.5421 11 12.782 12.2125 12.782 13.7V14.5ZM7.15789 9C9.69831 9 11.7594 6.98438 11.7594 4.5C11.7594 2.01562 9.69831 0 7.15789 0C4.61748 0 2.55639 2.01562 2.55639 4.5C2.55639 6.98438 4.61748 9 7.15789 9ZM7.15789 1.5C8.84831 1.5 10.2256 2.84687 10.2256 4.5C10.2256 6.15313 8.84831 7.5 7.15789 7.5C5.46748 7.5 4.09023 6.15313 4.09023 4.5C4.09023 2.84687 5.46748 1.5 7.15789 1.5Z" fill="black"/>
</svg>
