<svg width="500" height="500" viewBox="0 0 500 500" fill="none" xmlns="http://www.w3.org/2000/svg">
<path d="M250 500C316.986 500 379.785 474.282 427.033 427.034C474.282 379.785 500 316.986 500 250C500 183.014 474.282 120.215 427.033 72.9665C379.785 25.7177 316.986 0 250 0C183.014 0 120.215 25.7177 72.9665 72.9665C25.7177 120.215 0 183.014 0 250C0 316.986 25.7177 379.785 72.9665 427.034C120.215 474.282 183.014 500 250 500ZM264.354 457.536C259.569 458.134 254.785 458.134 250 458.134C243.421 458.134 236.842 457.536 230.263 456.938C208.732 423.445 192.584 387.56 183.014 349.88H288.876C292.464 358.852 299.043 367.225 306.818 372.608C296.651 402.512 282.297 430.622 264.354 457.536V457.536ZM321.172 445.574C332.536 424.641 341.507 403.708 348.684 381.579C366.029 377.99 379.785 366.029 386.364 349.88H432.416C408.493 393.541 368.421 427.632 321.172 445.574ZM457.536 250C457.536 269.737 454.545 288.876 449.761 307.416H385.167C381.579 299.641 375.598 292.464 368.421 287.081C369.617 273.924 370.215 260.766 370.215 247.608C370.215 229.067 369.019 210.526 366.627 192.584H449.163C455.144 210.526 457.536 230.263 457.536 250V250ZM432.416 150.12H359.45C351.675 117.225 340.311 86.1245 324.761 56.2201C370.215 73.5646 408.493 107.656 432.416 150.12ZM328.349 247.608C328.349 257.775 327.751 267.943 327.153 278.11C310.407 281.699 296.651 292.464 290.072 307.416H174.641C172.249 289.474 170.455 270.933 170.455 252.99C170.455 241.627 171.053 230.263 172.249 218.9C187.799 215.909 200.359 205.742 208.134 192.584H324.761C327.153 210.526 328.349 229.067 328.349 247.608V247.608ZM234.45 43.0622C239.832 42.4641 245.215 42.4642 250 42.4642C255.981 42.4642 261.962 42.4641 267.943 43.0622C289.474 76.555 305.622 112.44 315.191 150.12H211.124C207.536 139.952 200.957 130.981 192.584 124.402C203.349 95.6938 217.105 68.7799 234.45 43.0622ZM177.632 55.0239C167.464 74.1627 158.493 94.4976 151.316 114.833C132.775 118.421 117.823 132.177 111.842 149.522H68.1819C91.5072 107.057 130.383 72.9665 177.632 55.0239ZM42.4641 250C42.4641 230.263 45.4545 210.526 50.8373 192.584H116.029C119.617 199.163 125 205.144 130.981 209.928C129.785 224.282 128.589 238.636 128.589 252.99C128.589 271.531 129.785 289.474 132.177 307.416H50.8373C44.8565 288.876 42.4641 269.737 42.4641 250ZM139.354 349.282C147.129 381.579 158.493 413.277 174.043 443.182C128.589 425.239 90.9091 391.746 67.5837 349.282H139.354Z" fill="white"/>
</svg>
