<?xml version="1.0" standalone="no"?>
<!DOCTYPE svg PUBLIC "-//W3C//DTD SVG 20010904//EN"
 "http://www.w3.org/TR/2001/REC-SVG-20010904/DTD/svg10.dtd">
<svg version="1.0" xmlns="http://www.w3.org/2000/svg"
 width="700.000000pt" height="700.000000pt" viewBox="0 0 700.000000 700.000000"
 preserveAspectRatio="xMidYMid meet">
<metadata>
Created by potrace 1.11, written by Peter Selinger 2001-2013
</metadata>
<g transform="translate(0.000000,700.000000) scale(0.100000,-0.100000)"
fill="#000000" stroke="none">
<path d="M3340 5683 c-111 -9 -262 -34 -414 -68 -63 -14 -278 -95 -372 -140
-93 -44 -299 -165 -346 -204 -7 -6 -42 -34 -78 -63 -244 -197 -431 -426 -580
-711 -49 -93 -137 -316 -155 -393 -3 -10 -11 -46 -20 -79 -73 -291 -81 -661
-19 -965 131 -641 547 -1196 1124 -1497 102 -53 199 -95 320 -137 398 -137
908 -148 1308 -27 18 5 35 10 38 9 21 -1 239 87 338 137 492 250 866 663 1059
1171 42 110 71 202 83 264 2 14 7 31 9 38 2 7 7 34 11 60 3 26 8 50 10 53 4 7
12 68 22 166 14 125 5 434 -14 528 -2 11 -7 36 -10 55 -2 19 -9 55 -15 80 -5
25 -11 54 -14 65 -10 52 -68 229 -100 310 -93 230 -284 525 -441 679 -156 152
-232 216 -374 311 -264 176 -604 305 -900 340 -19 3 -55 8 -80 11 -46 7 -326
12 -390 7z m297 -372 c16 -1 35 -23 71 -83 98 -163 212 -399 270 -558 32 -90
79 -241 84 -275 3 -20 -3 -20 -445 -20 -246 -1 -451 2 -455 5 -4 3 -20 30 -35
61 -16 31 -51 80 -78 109 l-50 53 36 88 c46 116 138 307 187 388 21 34 38 65
38 67 0 2 23 40 51 84 34 53 58 80 72 82 20 3 200 2 254 -1z m-777 -114 c0 -2
-27 -58 -59 -123 -32 -66 -83 -181 -112 -255 l-54 -135 -58 -18 c-107 -34
-228 -145 -271 -248 l-15 -38 -191 0 -192 0 23 38 c192 316 447 553 768 712
134 66 161 78 161 67z m1456 -77 c258 -130 477 -315 652 -550 47 -63 122 -180
122 -191 0 -10 -633 -4 -636 6 -48 214 -189 605 -271 752 -25 46 -27 53 -14
53 4 0 71 -31 147 -70z m-1971 -1146 c11 -15 41 -51 67 -79 52 -57 49 -36 33
-208 -8 -82 -8 -345 -1 -442 9 -117 17 -189 22 -217 5 -24 2 -28 -18 -29 -29
0 -647 0 -671 0 -22 1 -33 30 -57 146 -49 233 -45 519 11 757 12 51 25 95 29
98 5 3 133 5 286 4 l278 -1 21 -29z m1796 27 c9 -1 16 -7 16 -13 0 -7 3 -35 6
-63 18 -141 27 -576 14 -649 -2 -13 -23 -26 -63 -40 -103 -37 -173 -94 -235
-188 -27 -42 -35 -48 -68 -49 -146 -2 -963 0 -966 3 -7 7 -16 82 -34 278 -12
140 -3 463 14 490 3 6 14 10 23 10 26 0 143 62 181 95 18 17 49 50 68 75 25
32 43 46 66 50 25 4 901 5 978 1z m1098 -7 c9 -10 29 -67 36 -105 3 -13 7 -35
10 -49 21 -108 32 -241 29 -370 -2 -84 -12 -211 -19 -240 0 -3 -5 -27 -10 -55
-5 -27 -9 -52 -10 -55 -1 -3 -5 -26 -9 -51 -4 -25 -11 -51 -16 -58 -7 -12
-219 -16 -532 -12 -32 1 -39 6 -61 44 -14 23 -48 65 -75 92 l-49 51 8 49 c8
52 4 593 -5 655 -3 19 -8 50 -11 68 -3 19 -3 37 -1 40 6 11 706 7 715 -4z
m-2678 -1474 c34 -125 38 -139 96 -300 50 -139 55 -151 125 -299 26 -57 47
-105 46 -107 -2 -1 -48 19 -103 45 -237 112 -477 302 -647 511 -45 56 -168
240 -168 251 0 5 136 8 311 7 l312 -3 28 -105z m1302 61 c12 -25 47 -71 77
-102 l56 -57 -23 -63 c-13 -35 -28 -73 -33 -84 -5 -11 -21 -49 -36 -85 -60
-140 -223 -435 -273 -494 -15 -17 -29 -18 -159 -14 -78 3 -144 7 -146 9 -36
44 -182 315 -245 457 -53 118 -145 381 -156 443 l-7 35 462 0 461 -1 22 -44z
m1227 39 c0 -3 -20 -39 -45 -79 -111 -179 -280 -361 -460 -495 -60 -44 -121
-87 -135 -95 -14 -8 -52 -30 -85 -49 -60 -34 -228 -112 -233 -107 -1 1 29 67
67 146 38 79 90 203 117 275 l49 132 50 16 c96 30 192 108 243 196 14 25 29
50 33 56 9 11 399 15 399 4z"/>
</g>
</svg>
